<svg width="17" height="17" viewBox="0 0 17 17" fill="none" xmlns="http://www.w3.org/2000/svg">
<path fill-rule="evenodd" clip-rule="evenodd" d="M3 0C1.34314 0 0 1.34314 0 3V13.5C0 15.1568 1.34314 16.5 3 16.5H13.5C15.1568 16.5 16.5 15.1568 16.5 13.5V3C16.5 1.34314 15.1568 0 13.5 0H3ZM13.1072 6.31597C13.1799 9.30188 10.7684 15.3496 2.25 12.0433C3.37966 12.0433 5.22143 11.6303 5.67857 11.1731C5.01191 11.0779 3.67857 10.6017 3.67857 9.45885H4.82143C4.80268 9.44948 4.783 9.43965 4.76248 9.42952C4.15777 9.12915 2.82142 8.46532 2.82142 6.8874C3.10714 7.17315 3.57443 7.2897 3.96428 7.17315C3.37949 6.66426 2.07989 5.21033 3.10714 3.74456C3.96428 4.69694 6.13571 6.6017 7.96425 6.6017C7.67858 5.83979 7.96425 4.31597 9.39285 3.74456C10.8214 3.17313 11.8432 3.67987 12.25 4.31598C12.7486 4.27676 13.1962 4.01935 13.4998 3.8447C13.5667 3.80623 13.6266 3.77177 13.6786 3.74455C13.6786 3.76302 13.6787 3.78186 13.6787 3.80104C13.6801 4.20987 13.6819 4.77285 13.0942 5.17311C13.3799 5.38804 13.6786 5.47338 14.25 5.17311C14.25 5.65625 13.7991 6.12722 13.1072 6.31597Z" fill="#32256E"/>
</svg>
