<svg width="17" height="17" viewBox="0 0 17 17" fill="none" xmlns="http://www.w3.org/2000/svg">
<path fill-rule="evenodd" clip-rule="evenodd" d="M3 0C1.34314 0 0 1.34314 0 3V13.5C0 15.1568 1.34314 16.5 3 16.5H13.5C15.1568 16.5 16.5 15.1568 16.5 13.5V3C16.5 1.34314 15.1568 0 13.5 0H3ZM6.51136 4.70455C6.51136 3.34894 7.61033 2.25 8.96588 2.25H11.1477C11.2984 2.25 11.4205 2.37211 11.4205 2.52273V4.70455C11.4205 4.85517 11.2984 4.97727 11.1477 4.97727H10.0568C9.60495 4.97727 9.23865 5.34359 9.23865 5.79545V6.61364H11.1477C11.2317 6.61364 11.311 6.65233 11.3627 6.71852C11.4144 6.78472 11.4327 6.87105 11.4123 6.9525L10.8668 9.13433C10.8365 9.25575 10.7274 9.34088 10.6023 9.34088H9.23865V13.9773C9.23865 14.1279 9.11655 14.25 8.96588 14.25H6.78412C6.63346 14.25 6.51136 14.1279 6.51136 13.9773V9.34088H5.14773C4.99711 9.34088 4.875 9.21878 4.875 9.06818V6.88635C4.875 6.73574 4.99711 6.61364 5.14773 6.61364H6.51136V4.70455Z" fill="#32256E"/>
</svg>
