<svg width="104" height="91" viewBox="0 0 104 91" fill="none" xmlns="http://www.w3.org/2000/svg">
<path fill-rule="evenodd" clip-rule="evenodd" d="M21.1038 53.0365C21.1038 73.6778 37.8368 90.4109 58.4781 90.4109C79.1194 90.4109 95.8525 73.6778 95.8525 53.0365C95.8525 32.3953 79.1194 15.6622 58.4781 15.6622C37.8368 15.6622 21.1038 32.3953 21.1038 53.0365" fill="#C6EBFA"/>
<path d="M2 51.0683C2 46.4432 3.76433 41.818 7.29321 38.2891C10.8221 34.7602 15.4474 32.9959 20.0724 32.9959" stroke="#C6EBFA" stroke-width="3.393"/>
<path d="M11.0367 51.0683C11.0367 48.7557 11.919 46.4432 13.6834 44.6787C15.4479 42.9144 17.7603 42.0321 20.073 42.0321" stroke="#C6EBFA" stroke-width="3.393"/>
<path fill-rule="evenodd" clip-rule="evenodd" d="M76.3145 59.2857C74.8385 59.7477 70.2557 61.2514 67.6003 65.1315C67.1564 65.78 66.1188 67.3289 66.6524 68.1647C67.3073 69.1901 69.9742 68.6158 71.0175 68.3182C74.3721 67.3613 84.4155 62.7948 97.7094 56.0146C92.9938 56.1673 84.4186 56.7495 76.3145 59.2857" fill="#C6EBFA"/>
<path fill-rule="evenodd" clip-rule="evenodd" d="M76.3145 59.2857C74.8385 59.7477 70.2557 61.2514 67.6003 65.1315C67.1564 65.78 66.1188 67.3289 66.6524 68.1647C67.3073 69.1901 69.9742 68.6158 71.0175 68.3182C74.3721 67.3613 84.4155 62.7948 97.7094 56.0146C92.9938 56.1673 84.4186 56.7495 76.3145 59.2857Z" stroke="#C6EBFA" stroke-width="2.036" stroke-linecap="round" stroke-linejoin="round"/>
<mask id="mask0_149_11" style="mask-type:luminance" maskUnits="userSpaceOnUse" x="46" y="9" width="55" height="61">
<path fill-rule="evenodd" clip-rule="evenodd" d="M53.1386 10.1769C52.455 10.7356 52.3142 11.6106 52.2752 11.88V11.88C51.9666 14.0248 53.8765 16.1184 56.9703 18.6653V18.6653C56.5524 18.3683 52.2986 15.4347 50.3532 16.9075V16.9075C49.5956 17.4856 49.4784 18.5168 49.4431 18.8642V18.8642C49.0369 22.497 58.2361 28.9384 64.2867 32.7784V32.7784C57.3221 28.6261 49.0252 24.4308 46.9393 26.704V26.704C46.533 27.1455 46.4707 27.7158 46.4471 27.9658V27.9658C46.1502 30.7781 50.6464 33.0165 60.3961 39.1609V39.1609C58.146 37.7744 55.5525 36.2586 53.4743 35.2783V35.2783C52.4508 34.7938 50.7166 34.0477 49.8181 34.7705V34.7705C49.8181 34.7705 49.4041 35.1022 49.2869 35.8213V35.8213C48.7988 38.7781 61.2282 47.6491 68.4155 56.9613V56.9613C70.4116 59.5434 73.1654 63.6684 75.4389 69.6137V69.6137L100.075 67.2777C99.6496 66.0434 99.0596 64.1762 98.5516 61.856V61.856C96.626 53.0709 98.4776 49.739 97.54 42.2274V42.2274C97.3136 40.4226 96.3214 33.5086 91.8604 26.4971V26.4971C89.2317 22.3642 84.2396 16.3762 81.7902 17.4034V17.4034C80.3334 18.0167 80.06 20.9816 80.3215 22.8799V22.8799C80.4935 24.1142 80.9114 25.0518 81.4544 25.8955V25.8955C78.1615 23.376 66.7749 14.755 59.7048 11.259V11.259C57.6817 10.2604 56.0081 9.67662 54.7524 9.67684V9.67684C54.0975 9.67684 53.5562 9.83567 53.1386 10.1769" fill="white"/>
</mask>
<g mask="url(#mask0_149_11)">
<path fill-rule="evenodd" clip-rule="evenodd" d="M53.1386 10.1769C52.455 10.7356 52.3142 11.6106 52.2752 11.88V11.88C51.9666 14.0248 53.8765 16.1184 56.9703 18.6653V18.6653C56.5524 18.3683 52.2986 15.4347 50.3532 16.9075V16.9075C49.5956 17.4856 49.4784 18.5168 49.4431 18.8642V18.8642C49.0369 22.497 58.2361 28.9384 64.2867 32.7784V32.7784C57.3221 28.6261 49.0252 24.4308 46.9393 26.704V26.704C46.533 27.1455 46.4707 27.7158 46.4471 27.9658V27.9658C46.1502 30.7781 50.6464 33.0165 60.3961 39.1609V39.1609C58.146 37.7744 55.5525 36.2586 53.4743 35.2783V35.2783C52.4508 34.7938 50.7166 34.0477 49.8181 34.7705V34.7705C49.8181 34.7705 49.4041 35.1022 49.2869 35.8213V35.8213C48.7988 38.7781 61.2282 47.6491 68.4155 56.9613V56.9613C70.4116 59.5434 73.1654 63.6684 75.4389 69.6137V69.6137L100.075 67.2777C99.6496 66.0434 99.0596 64.1762 98.5516 61.856V61.856C96.626 53.0709 98.4776 49.739 97.54 42.2274V42.2274C97.3136 40.4226 96.3214 33.5086 91.8604 26.4971V26.4971C89.2317 22.3642 84.2396 16.3762 81.7902 17.4034V17.4034C80.3334 18.0167 80.06 20.9816 80.3215 22.8799V22.8799C80.4935 24.1142 80.9114 25.0518 81.4544 25.8955V25.8955C78.1615 23.376 66.7749 14.755 59.7048 11.259V11.259C57.6817 10.2604 56.0081 9.67662 54.7524 9.67684V9.67684C54.0975 9.67684 53.5562 9.83567 53.1386 10.1769" fill="url(#paint0_linear_149_11)"/>
</g>
<path d="M54.7836 35.6658C56.4107 36.6778 58.281 37.8284 60.3991 39.1629C62.5247 40.5021 64.2082 41.5912 65.1239 42.1865" stroke="#081F2D" stroke-width="2.036"/>
<path d="M58.5471 28.9192C62.3822 31.6777 66.3909 34.1068 68.2903 35.237" stroke="#081F2D" stroke-width="2.036"/>
<path d="M54.5503 16.4983C55.5921 17.5515 56.9407 18.6666 58.4999 19.8901C61.3629 22.1367 65.2682 25.0095 70.185 28.0932" stroke="#081F2D" stroke-width="2.036"/>
<mask id="mask1_149_11" style="mask-type:luminance" maskUnits="userSpaceOnUse" x="54" y="0" width="30" height="51">
<path fill-rule="evenodd" clip-rule="evenodd" d="M54.5728 0H83.8692V50.7805H54.5728V0Z" fill="white"/>
</mask>
<g mask="url(#mask1_149_11)">
<path fill-rule="evenodd" clip-rule="evenodd" d="M79.9629 50.7805H58.4788C56.3214 50.7805 54.5728 49.0316 54.5728 46.8743V3.90622C54.5728 1.74889 56.3214 -2.28882e-05 58.4788 -2.28882e-05H79.9629C82.1202 -2.28882e-05 83.8692 1.74889 83.8692 3.90622V46.8743C83.8692 49.0316 82.1202 50.7805 79.9629 50.7805" fill="#32256E"/>
</g>
<path d="M65.4843 2.54148H72.959" stroke="#081F2D" stroke-width="2.036"/>
<path d="M63.6899 47.7906H74.7526" stroke="white" stroke-width="2.036"/>
<mask id="mask2_149_11" style="mask-type:luminance" maskUnits="userSpaceOnUse" x="80" y="17" width="21" height="51">
<path fill-rule="evenodd" clip-rule="evenodd" d="M81.7903 17.4034C80.3335 18.0167 80.0601 20.9816 80.3216 22.8799V22.8799C80.779 26.1649 82.9856 27.329 84.6264 30.3135V30.3135C85.56 32.0087 86.4077 34.4698 86.3022 38.0282V38.0282C86.3022 38.0282 84.9936 38.5164 83.8569 39.446V39.446C78.8842 43.5086 80.1617 51.6648 80.3335 52.6724V52.6724L100.075 67.2777C99.6497 66.0434 99.0638 64.1762 98.552 61.856V61.856C96.6302 53.0709 98.4778 49.7388 97.5402 42.2274V42.2274C97.3137 40.4226 96.3215 33.5086 91.8606 26.4971V26.4971C89.4343 22.6823 84.9943 17.2869 82.399 17.2869V17.2869C82.1824 17.2869 81.9789 17.3243 81.7903 17.4034" fill="white"/>
</mask>
<g mask="url(#mask2_149_11)">
<path fill-rule="evenodd" clip-rule="evenodd" d="M81.7903 17.4034C80.3335 18.0167 80.0601 20.9816 80.3216 22.8799V22.8799C80.779 26.1649 82.9856 27.329 84.6264 30.3135V30.3135C85.56 32.0087 86.4077 34.4698 86.3022 38.0282V38.0282C86.3022 38.0282 84.9936 38.5164 83.8569 39.446V39.446C78.8842 43.5086 80.1617 51.6648 80.3335 52.6724V52.6724L100.075 67.2777C99.6497 66.0434 99.0638 64.1762 98.552 61.856V61.856C96.6302 53.0709 98.4778 49.7388 97.5402 42.2274V42.2274C97.3137 40.4226 96.3215 33.5086 91.8606 26.4971V26.4971C89.4343 22.6823 84.9943 17.2869 82.399 17.2869V17.2869C82.1824 17.2869 81.9789 17.3243 81.7903 17.4034" fill="url(#paint1_linear_149_11)"/>
</g>
<path d="M86.3012 38.0281C86.3015 33.5773 85.4701 31.8469 84.6255 30.3135C82.9849 27.3291 80.7778 26.1651 80.3209 22.8799" stroke="#081F2D" stroke-width="2.036"/>
<path d="M80.3325 52.6724C80.1607 51.6646 78.8834 43.5084 83.8559 39.446C84.9888 38.5206 86.3011 38.0282 86.3011 38.0282C86.838 37.8121 87.3006 37.681 87.6209 37.6022" stroke="#081F2D" stroke-width="2.036"/>
<mask id="mask3_149_11" style="mask-type:luminance" maskUnits="userSpaceOnUse" x="66" y="56" width="38" height="33">
<path fill-rule="evenodd" clip-rule="evenodd" d="M66.5299 56.0161H103.568V88.7011H66.5299V56.0161Z" fill="white"/>
</mask>
<g mask="url(#mask3_149_11)">
<path fill-rule="evenodd" clip-rule="evenodd" d="M103.568 77.5117L69.6825 88.7011C68.8674 81.6971 67.9938 76.8676 67.4818 73.6669C67.1725 71.7283 66.8551 69.8036 66.5299 67.893C66.5343 67.9062 66.5478 67.9463 66.5647 67.9875C66.5755 68.0228 66.5909 68.0554 66.6063 68.088C66.6189 68.1157 66.6354 68.1444 66.6502 68.1646C67.3023 69.1886 69.9685 68.616 71.0135 68.318C74.3675 67.3619 84.4105 62.7963 97.7052 56.0161L103.568 77.5117Z" fill="#00A699"/>
</g>
<path d="M67.3972 73.1296V73.1296C70.0877 73.8987 72.9596 73.7312 75.5424 72.6549L99.5193 62.6626" stroke="#081F2D" stroke-width="2.036"/>
<path d="M67.5975 65.1314C67.1536 65.7799 66.116 67.329 66.6496 68.1646C67.3045 69.1901 69.9714 68.6158 71.0147 68.3182C74.3693 67.3612 84.4127 62.7947 97.7066 56.0145" stroke="#081F2D" stroke-width="2.036" stroke-linecap="round" stroke-linejoin="round"/>
<defs>
<linearGradient id="paint0_linear_149_11" x1="121.688" y1="47.2393" x2="80.0736" y2="13.9074" gradientUnits="userSpaceOnUse">
<stop stop-color="#FF5607"/>
<stop offset="1" stop-color="#FFA700"/>
</linearGradient>
<linearGradient id="paint1_linear_149_11" x1="97.2434" y1="70.7129" x2="97.2434" y2="34.8692" gradientUnits="userSpaceOnUse">
<stop stop-color="#FF5607"/>
<stop offset="1" stop-color="#FFA700"/>
</linearGradient>
</defs>
</svg>
