<svg width="595" height="114" viewBox="0 0 595 114" fill="none" xmlns="http://www.w3.org/2000/svg">
<g clip-path="url(#clip0_311_163)">
<path d="M83.2999 17.2H2.8999C0.199902 17.2 -2.1001 19.4999 -2.1001 22.2999V31.3999C-2.1001 34.1999 0.199902 36.4999 2.8999 36.4999H83.2999C86.0999 36.4999 88.2999 34.1999 88.3999 31.3999V22.3999C88.3999 19.4999 86.0999 17.2 83.2999 17.2ZM83.2999 67.7H2.8999C1.5999 67.7 0.299902 68.2 -0.600098 69.2C-1.6001 70.2 -2.1001 71.3999 -2.1001 72.7999V81.8999C-2.1001 84.6999 0.199902 86.9999 2.8999 86.9999H83.2999C86.0999 86.9999 88.2999 84.7999 88.3999 81.8999V72.7999C88.2999 69.8999 86.0999 67.7 83.2999 67.7ZM48.1999 92.8999H2.8999C1.5999 92.8999 0.299902 93.3999 -0.600098 94.3999C-1.5001 95.3999 -2.1001 96.5999 -2.1001 97.9999V107.1C-2.1001 109.9 0.199902 112.2 2.8999 112.2H48.0999C50.8999 112.2 53.0999 109.9 53.0999 107.2V98.0999C53.1999 95.0999 50.9999 92.8999 48.1999 92.8999ZM88.3999 42.3999H2.8999C1.5999 42.3999 0.299902 42.8999 -0.600098 43.8999C-1.5001 44.8999 -2.1001 46.0999 -2.1001 47.4999V56.5999C-2.1001 59.3999 0.199902 61.7 2.8999 61.7H88.2999C91.0999 61.7 93.2999 59.3999 93.2999 56.5999V47.4999C93.3999 44.7999 91.0999 42.4999 88.3999 42.3999Z" fill="#2DBDEF"/>
<path d="M181.9 37.6001C179.4 35.0001 176.5 33.0001 173.2 31.6001C169.9 30.2001 166.4 29.5001 162.8 29.5001C159.3 29.4001 155.9 30.2001 152.7 31.7001C150.6 32.7001 148.7 34.1001 147.1 35.8001V34.2001C147.1 33.4001 146.8 32.6001 146.3 32.0001C145.8 31.4001 145 31.0001 144.1 31.0001H133C132.2 31.0001 131.4 31.3001 130.9 32.0001C130.3 32.6001 130 33.4001 130.1 34.2001V109C130.1 109.8 130.4 110.6 130.9 111.2C131.5 111.8 132.2 112.1 133 112.1H144.4C145.2 112.1 145.9 111.8 146.5 111.2C147.1 110.7 147.5 109.9 147.4 109V83.4001C149 85.2001 151.1 86.5001 153.4 87.3001C156.4 88.4001 159.5 89.0001 162.7 89.0001C166.3 89.0001 169.9 88.3001 173.2 86.9001C176.5 85.5001 179.5 83.5001 182 80.9001C184.6 78.2001 186.6 75.0001 188 71.5001C189.6 67.6001 190.3 63.4001 190.2 59.2001C190.3 55.0001 189.5 50.8001 188 46.8001C186.5 43.5001 184.5 40.3001 181.9 37.6001ZM171.7 64.7001C171.1 66.3001 170.2 67.7001 169 69.0001C166.7 71.5001 163.4 72.9001 160 72.9001C158.3 72.9001 156.6 72.6001 155 71.8001C153.5 71.1001 152.1 70.2001 150.9 69.0001C149.7 67.8001 148.8 66.3001 148.2 64.7001C146.9 61.3001 146.9 57.6001 148.2 54.2001C148.8 52.6001 149.8 51.2001 150.9 50.0001C152.1 48.8001 153.5 47.8001 155 47.1001C156.6 46.4001 158.3 46.0001 160 46.0001C161.8 46.0001 163.4 46.3001 165.1 47.1001C166.6 47.8001 168 48.7001 169.1 49.9001C170.3 51.1001 171.1 52.5001 171.8 54.1001C173 57.6001 172.9 61.3001 171.7 64.7001ZM251.3 31.1001H240C239.2 31.1001 238.4 31.4001 237.9 32.0001C237.3 32.6001 237 33.4001 237 34.3001V35.7001C235.6 34.0001 233.8 32.7001 231.9 31.8001C228.8 30.3001 225.4 29.6001 222 29.6001C214.7 29.6001 207.8 32.5001 202.6 37.6001C199.9 40.3001 197.8 43.5001 196.4 47.0001C194.8 50.9001 194 55.1001 194.1 59.4001C194 63.6001 194.8 67.8001 196.4 71.8001C197.9 75.3001 199.9 78.5001 202.6 81.2001C207.7 86.4001 214.7 89.3001 221.9 89.3001C225.3 89.4001 228.7 88.6001 231.8 87.1001C233.7 86.1001 235.6 84.8001 237 83.2001V84.7001C237 85.5001 237.3 86.3001 237.9 86.9001C238.5 87.4001 239.2 87.8001 240 87.8001H251.3C252.1 87.8001 252.9 87.5001 253.4 86.9001C254 86.3001 254.3 85.5001 254.3 84.7001V34.4001C254.3 33.6001 254 32.8001 253.5 32.2001C252.9 31.5001 252.1 31.1001 251.3 31.1001ZM236 64.7001C235.4 66.3001 234.5 67.7001 233.3 69.0001C232.1 70.2001 230.8 71.2001 229.3 71.9001C226.1 73.4001 222.4 73.4001 219.2 71.9001C217.7 71.2001 216.3 70.2001 215.1 69.0001C213.9 67.8001 213 66.3001 212.4 64.7001C211.2 61.3001 211.2 57.6001 212.4 54.2001C213 52.6001 213.9 51.3001 215.1 50.0001C216.3 48.8001 217.6 47.8001 219.2 47.1001C222.4 45.6001 226.1 45.6001 229.2 47.1001C230.7 47.8001 232.1 48.7001 233.2 49.9001C234.3 51.1001 235.2 52.5001 235.9 54.1001C237.3 57.6001 237.3 61.3001 236 64.7001ZM363.9 57.9001C362.3 56.5001 360.4 55.3001 358.4 54.5001C356.3 53.6001 354 53.0001 351.8 52.5001L343.2 50.8001C341 50.4001 339.4 49.8001 338.6 49.1001C337.9 48.6001 337.4 47.8001 337.4 46.9001C337.4 46.0001 337.9 45.2001 339 44.5001C340.5 43.7001 342.1 43.3001 343.8 43.4001C346 43.4001 348.2 43.9001 350.2 44.7001C352.2 45.6001 354.1 46.5001 355.9 47.7001C358.4 49.3001 360.6 49.0001 362.1 47.2001L366.2 42.5001C367 41.7001 367.4 40.7001 367.5 39.6001C367.4 38.4001 366.8 37.4001 365.9 36.6001C364.2 35.1001 361.4 33.5001 357.7 31.9001C354 30.3001 349.3 29.5001 343.8 29.5001C340.4 29.4001 337.1 29.9001 333.9 30.9001C331.2 31.8001 328.6 33.1001 326.3 34.8001C324.2 36.4001 322.6 38.4001 321.4 40.8001C320.3 43.1001 319.7 45.6001 319.7 48.1001C319.7 52.8001 321.1 56.6001 323.9 59.4001C326.7 62.2001 330.4 64.1001 335 65.0001L344 67.0001C345.9 67.3001 347.9 67.9001 349.7 68.8001C350.7 69.2001 351.3 70.2001 351.3 71.3001C351.3 72.3001 350.8 73.2001 349.7 74.0001C348.6 74.8001 346.8 75.3001 344.4 75.3001C342 75.3001 339.5 74.8001 337.3 73.7001C335.2 72.7001 333.3 71.4001 331.5 69.9001C330.7 69.3001 329.9 68.8001 328.9 68.4001C327.9 68.1001 326.6 68.4001 325.3 69.5001L320.4 73.2001C319 74.2001 318.3 75.9001 318.7 77.5001C319 79.2001 320.3 80.8001 322.8 82.7001C329 86.9001 336.4 89.1001 343.9 88.9001C347.4 88.9001 350.9 88.5001 354.2 87.5001C357.1 86.6001 359.8 85.3001 362.2 83.5001C364.4 81.9001 366.2 79.8001 367.4 77.3001C368.6 74.9001 369.2 72.3001 369.2 69.6001C369.3 67.2001 368.8 64.8001 367.8 62.6001C366.8 61.0001 365.5 59.3001 363.9 57.9001ZM413.3 71.6001C412.8 70.7001 411.9 70.1001 410.8 69.9001C409.8 69.9001 408.7 70.2001 407.9 70.8001C406.5 71.7001 404.9 72.2001 403.3 72.3001C402.8 72.3001 402.2 72.2001 401.7 72.1001C401.1 72.0001 400.6 71.7001 400.2 71.3001C399.7 70.8001 399.3 70.2001 399 69.6001C398.6 68.6001 398.4 67.6001 398.5 66.6001V46.1001H413.1C414 46.1001 414.8 45.7001 415.4 45.1001C416 44.5001 416.4 43.8001 416.4 42.9001V34.2001C416.4 33.3001 416.1 32.5001 415.4 32.0001C414.8 31.4001 414 31.1001 413.2 31.1001H398.5V17.1001C398.5 16.3001 398.2 15.4001 397.6 14.9001C397 14.4001 396.3 14.1001 395.5 14.0001H384.1C383.3 14.0001 382.5 14.3001 381.9 14.9001C381.3 15.5001 380.9 16.3001 380.9 17.1001V31.1001H374.4C373.6 31.1001 372.8 31.4001 372.2 32.1001C371.7 32.7001 371.4 33.5001 371.4 34.3001V43.0001C371.4 43.8001 371.7 44.6001 372.2 45.2001C372.7 45.9001 373.5 46.2001 374.4 46.2001H380.9V70.6001C380.8 73.5001 381.4 76.4001 382.6 79.0001C383.7 81.2001 385.1 83.1001 387 84.7001C388.8 86.2001 390.9 87.3001 393.2 87.9001C395.5 88.6001 397.9 89.0001 400.3 89.0001C403.4 89.0001 406.6 88.5001 409.6 87.5001C412.4 86.6001 414.9 85.0001 416.9 82.9001C418.2 81.6001 418.3 79.5001 417.3 78.0001L413.3 71.6001ZM475.1 31.1001H463.8C463 31.1001 462.3 31.4001 461.7 32.0001C461.1 32.6001 460.8 33.4001 460.8 34.3001V35.7001C459.4 34.0001 457.7 32.7001 455.7 31.8001C452.6 30.3001 449.2 29.6001 445.8 29.6001C438.5 29.6001 431.6 32.5001 426.4 37.6001C423.7 40.3001 421.6 43.5001 420.2 47.0001C418.6 50.9001 417.8 55.1001 417.9 59.3001C417.8 63.5001 418.6 67.7001 420.2 71.7001C421.6 75.2001 423.8 78.4001 426.4 81.1001C431.5 86.3001 438.4 89.2001 445.7 89.2001C449.1 89.3001 452.5 88.5001 455.6 87.1001C457.6 86.1001 459.4 84.8001 460.8 83.2001V84.7001C460.8 85.5001 461.1 86.3001 461.7 86.8001C462.3 87.4001 463 87.7001 463.8 87.7001H475.1C476.8 87.7001 478.1 86.4001 478.1 84.7001V34.4001C478.1 33.6001 477.8 32.8001 477.3 32.2001C476.8 31.5001 476 31.1001 475.1 31.1001ZM459.9 64.8001C459.3 66.4001 458.4 67.8001 457.2 69.1001C456 70.3001 454.7 71.3001 453.2 72.0001C451.6 72.7001 449.9 73.1001 448.1 73.1001C446.3 73.1001 444.7 72.7001 443.1 72.0001C441.6 71.3001 440.2 70.3001 439 69.1001C437.8 67.9001 436.9 66.4001 436.4 64.8001C435.2 61.4001 435.2 57.7001 436.4 54.3001C437 52.7001 437.9 51.3001 439 50.1001C440.2 48.9001 441.6 47.9001 443.1 47.2001C444.7 46.5001 446.4 46.1001 448.1 46.1001C449.8 46.1001 451.5 46.4001 453.2 47.2001C454.7 47.9001 456 48.8001 457.2 50.0001C458.4 51.2001 459.3 52.6001 459.9 54.2001C461.2 57.5001 461.2 61.4001 459.9 64.8001ZM537.1 70.9001L530.6 65.9001C529.4 64.9001 528.2 64.6001 527.2 65.0001C526.3 65.4001 525.5 66.0001 524.8 66.7001C523.4 68.4001 521.7 69.9001 519.9 71.2001C517.9 72.3001 515.8 72.9001 513.6 72.7001C511 72.7001 508.6 72.0001 506.5 70.5001C504.4 69.0001 502.8 67.0001 502 64.5001C501.4 62.8001 501.1 61.1001 501.1 59.4001C501.1 57.6001 501.4 55.9001 502 54.1001C502.6 52.5001 503.4 51.1001 504.6 49.9001C505.8 48.7001 507.1 47.7001 508.6 47.1001C510.2 46.4001 511.9 46.0001 513.7 46.0001C515.9 45.9001 518.1 46.5001 520 47.6001C521.9 48.8001 523.5 50.3001 524.9 52.1001C525.5 52.8001 526.3 53.4001 527.2 53.8001C528.2 54.2001 529.4 53.9001 530.6 52.9001L537.1 48.0001C537.9 47.5001 538.5 46.7001 538.8 45.8001C539.2 44.8001 539.1 43.7001 538.5 42.8001C536 38.9001 532.6 35.7001 528.5 33.4001C524.2 31.0001 519.1 29.7001 513.4 29.7001C509.4 29.7001 505.4 30.5001 501.6 32.0001C498 33.5001 494.8 35.6001 492.1 38.3001C489.4 41.0001 487.2 44.2001 485.7 47.8001C482.6 55.3001 482.6 63.7001 485.7 71.2001C487.2 74.7001 489.3 78.0001 492.1 80.6001C497.8 86.2001 505.4 89.2001 513.4 89.2001C519.1 89.2001 524.2 87.9001 528.5 85.5001C532.6 83.2001 536.1 80.0001 538.6 76.0001C539.1 75.1001 539.2 74.0001 538.9 73.1001C538.5 72.3001 537.9 71.5001 537.1 70.9001ZM597.3 82.6001L579.4 56.4001L594.7 36.2001C595.4 35.3001 595.7 34.0001 595.3 32.9001C595 32.1001 594.3 31.3001 592.4 31.3001H580.3C579.6 31.3001 578.9 31.5001 578.3 31.8001C577.5 32.2001 576.9 32.8001 576.5 33.5001L564.3 50.6001H561.4V10.2001C561.4 9.4001 561.1 8.60009 560.5 8.00009C559.9 7.40009 559.2 7.1001 558.4 7.1001H547.1C546.3 7.1001 545.5 7.40009 544.9 8.00009C544.3 8.60009 544 9.3001 544 10.2001V84.7001C544 85.6001 544.3 86.3001 544.9 86.9001C545.5 87.5001 546.3 87.8001 547.1 87.8001H558.4C559.2 87.8001 560 87.5001 560.5 86.9001C561.1 86.3001 561.4 85.5001 561.4 84.7001V65.0001H564.6L577.9 85.4001C578.7 86.9001 580.2 87.8001 581.8 87.8001H594.5C596.4 87.8001 597.2 86.9001 597.6 86.1001C598.1 84.8001 598 83.5001 597.3 82.6001ZM315.5 31.2001H302.8C301.8 31.2001 300.9 31.5001 300.2 32.2001C299.6 32.8001 299.2 33.5001 299 34.3001L289.6 69.1001H287.3L277.3 34.3001C277.1 33.6001 276.8 32.9001 276.3 32.2001C275.7 31.5001 274.9 31.1001 274 31.1001H261.1C259.4 31.1001 258.4 31.6001 257.9 32.8001C257.6 33.8001 257.6 34.9001 257.9 35.9001L273.9 84.9001C274.2 85.6001 274.5 86.4001 275.1 86.9001C275.7 87.5001 276.6 87.8001 277.5 87.8001H284.3L283.7 89.4001L282.2 93.9001C281.7 95.3001 280.9 96.5001 279.7 97.4001C278.6 98.2001 277.3 98.7001 275.9 98.6001C274.7 98.6001 273.6 98.3001 272.5 97.9001C271.4 97.4001 270.4 96.8001 269.5 96.1001C268.7 95.5001 267.7 95.2001 266.6 95.2001H266.5C265.3 95.3001 264.2 95.9001 263.6 97.0001L259.6 102.9C258 105.5 258.9 107.1 259.9 108C262.1 110 264.6 111.5 267.4 112.4C270.5 113.5 273.7 114 276.9 114C282.7 114 287.5 112.4 291.2 109.3C295 105.9 297.9 101.5 299.3 96.5001L317.9 35.9001C318.3 34.8001 318.4 33.7001 318 32.7001C317.9 32.0001 317.2 31.1001 315.5 31.2001Z" fill="#131E32"/>
</g>
<defs>
<clipPath id="clip0_311_163">
<rect width="595" height="114" fill="white"/>
</clipPath>
</defs>
</svg>
