<svg width="428" height="432" viewBox="0 0 428 432" fill="none" xmlns="http://www.w3.org/2000/svg">
<rect x="1" y="1" width="41.6667" height="41.6667" rx="4.5977" stroke="#F0F0F0" stroke-width="0.431035"/>
<rect x="42.6665" y="1" width="41.6667" height="41.6667" rx="4.5977" stroke="#F0F0F0" stroke-width="0.431035"/>
<rect x="84.3335" y="1" width="41.6667" height="41.6667" rx="4.5977" stroke="#F0F0F0" stroke-width="0.431035"/>
<rect x="126" y="1" width="41.6667" height="41.6667" rx="4.5977" stroke="#F0F0F0" stroke-width="0.431035"/>
<rect x="167.667" y="1" width="41.6667" height="41.6667" rx="4.5977" stroke="#F0F0F0" stroke-width="0.431035"/>
<rect x="209.333" y="1" width="41.6667" height="41.6667" rx="4.5977" stroke="#F0F0F0" stroke-width="0.431035"/>
<rect x="1" y="54.9167" width="41.6667" height="41.6667" rx="4.5977" stroke="#F0F0F0" stroke-width="0.431035"/>
<rect x="42.6665" y="54.9167" width="41.6667" height="41.6667" rx="4.5977" stroke="#F0F0F0" stroke-width="0.431035"/>
<rect x="84.3335" y="54.9167" width="41.6667" height="41.6667" rx="4.5977" stroke="#F0F0F0" stroke-width="0.431035"/>
<rect x="126" y="54.9167" width="41.6667" height="41.6667" rx="4.5977" stroke="#F0F0F0" stroke-width="0.431035"/>
<rect x="167.667" y="54.9167" width="41.6667" height="41.6667" rx="4.5977" stroke="#F0F0F0" stroke-width="0.431035"/>
<rect x="209.333" y="54.9167" width="41.6667" height="41.6667" rx="4.5977" stroke="#F0F0F0" stroke-width="0.431035"/>
<rect x="1" y="108.833" width="41.6667" height="41.6667" rx="4.5977" stroke="#F0F0F0" stroke-width="0.431035"/>
<rect x="42.6665" y="108.833" width="41.6667" height="41.6667" rx="4.5977" stroke="#F0F0F0" stroke-width="0.431035"/>
<rect x="84.3335" y="108.833" width="41.6667" height="41.6667" rx="4.5977" stroke="#F0F0F0" stroke-width="0.431035"/>
<rect x="126" y="108.833" width="41.6667" height="41.6667" rx="4.5977" stroke="#F0F0F0" stroke-width="0.431035"/>
<rect x="167.667" y="108.833" width="41.6667" height="41.6667" rx="4.5977" stroke="#F0F0F0" stroke-width="0.431035"/>
<rect x="209.333" y="108.833" width="41.6667" height="41.6667" rx="4.5977" stroke="#F0F0F0" stroke-width="0.431035"/>
<rect x="1" y="162.75" width="41.6667" height="41.6667" rx="4.5977" stroke="#F0F0F0" stroke-width="0.431035"/>
<rect x="42.6665" y="162.75" width="41.6667" height="41.6667" rx="4.5977" stroke="#F0F0F0" stroke-width="0.431035"/>
<rect x="84.3335" y="162.75" width="41.6667" height="41.6667" rx="4.5977" stroke="#F0F0F0" stroke-width="0.431035"/>
<rect x="126" y="162.75" width="41.6667" height="41.6667" rx="4.5977" stroke="#F0F0F0" stroke-width="0.431035"/>
<rect x="167.667" y="162.75" width="41.6667" height="41.6667" rx="4.5977" stroke="#F0F0F0" stroke-width="0.431035"/>
<rect x="209.333" y="162.75" width="41.6667" height="41.6667" rx="4.5977" stroke="#F0F0F0" stroke-width="0.431035"/>
<rect x="1" y="216.667" width="41.6667" height="41.6667" rx="4.5977" stroke="#F0F0F0" stroke-width="0.431035"/>
<rect x="42.6665" y="216.667" width="41.6667" height="41.6667" rx="4.5977" stroke="#F0F0F0" stroke-width="0.431035"/>
<rect x="84.3335" y="216.667" width="41.6667" height="41.6667" rx="4.5977" stroke="#F0F0F0" stroke-width="0.431035"/>
<rect x="126" y="216.667" width="41.6667" height="41.6667" rx="4.5977" stroke="#F0F0F0" stroke-width="0.431035"/>
<rect x="167.667" y="216.667" width="41.6667" height="41.6667" rx="4.5977" stroke="#F0F0F0" stroke-width="0.431035"/>
<rect x="209.333" y="216.667" width="41.6667" height="41.6667" rx="4.5977" stroke="#F0F0F0" stroke-width="0.431035"/>
<rect x="1" y="270.583" width="41.6667" height="41.6667" rx="4.5977" stroke="#F0F0F0" stroke-width="0.431035"/>
<rect x="42.6665" y="270.583" width="41.6667" height="41.6667" rx="4.5977" stroke="#F0F0F0" stroke-width="0.431035"/>
<rect x="84.3335" y="270.583" width="41.6667" height="41.6667" rx="4.5977" stroke="#F0F0F0" stroke-width="0.431035"/>
<rect x="126" y="270.583" width="41.6667" height="41.6667" rx="4.5977" stroke="#F0F0F0" stroke-width="0.431035"/>
<rect x="167.667" y="270.583" width="41.6667" height="41.6667" rx="4.5977" stroke="#F0F0F0" stroke-width="0.431035"/>
<rect x="209.333" y="270.583" width="41.6667" height="41.6667" rx="4.5977" stroke="#F0F0F0" stroke-width="0.431035"/>
<rect x="1" y="324.5" width="41.6667" height="41.6667" rx="4.5977" stroke="#F0F0F0" stroke-width="0.431035"/>
<rect x="42.6665" y="324.5" width="41.6667" height="41.6667" rx="4.5977" stroke="#F0F0F0" stroke-width="0.431035"/>
<rect x="84.3335" y="324.5" width="41.6667" height="41.6667" rx="4.5977" stroke="#F0F0F0" stroke-width="0.431035"/>
<rect x="126" y="324.5" width="41.6667" height="41.6667" rx="4.5977" stroke="#F0F0F0" stroke-width="0.431035"/>
<rect x="167.667" y="324.5" width="41.6667" height="41.6667" rx="4.5977" stroke="#F0F0F0" stroke-width="0.431035"/>
<rect x="209.333" y="324.5" width="41.6667" height="41.6667" rx="4.5977" stroke="#F0F0F0" stroke-width="0.431035"/>
<path d="M216.667 59.3788V102.884C216.667 106.17 219.33 108.833 222.616 108.833H264.634C267.92 108.833 270.583 111.497 270.583 114.783V156.801C270.583 160.086 273.247 162.75 276.533 162.75H318.551C321.836 162.75 324.5 165.414 324.5 168.699V210.717C324.5 214.003 327.164 216.667 330.449 216.667H372.467C375.753 216.667 378.417 219.33 378.417 222.616V264.634C378.417 267.92 381.08 270.583 384.366 270.583H427.871M162.75 59.3788V102.884C162.75 106.17 165.414 108.833 168.699 108.833H210.717C214.003 108.833 216.667 111.497 216.667 114.783V156.801C216.667 160.086 219.33 162.75 222.616 162.75H264.634C267.92 162.75 270.583 165.414 270.583 168.699V210.717C270.583 214.003 267.92 216.667 264.634 216.667H222.616C219.33 216.667 216.667 214.003 216.667 210.717V167.956L216.615 167.604C216.215 164.91 213.928 162.898 211.204 162.845L206.255 162.75H168.699C165.414 162.75 162.75 165.414 162.75 168.699V210.717C162.75 214.003 165.414 216.667 168.699 216.667H211.089L212.501 216.761C214.845 216.917 216.667 218.864 216.667 221.213V225.777M216.667 221.129V264.634C216.667 267.92 219.33 270.583 222.616 270.583H264.634C267.92 270.583 270.583 273.247 270.583 276.533V318.551C270.583 321.836 273.247 324.5 276.533 324.5H318.551C321.836 324.5 324.5 327.164 324.5 330.449V372.467C324.5 375.753 327.164 378.417 330.449 378.417H372.467C375.753 378.417 378.417 381.08 378.417 384.366V426.384C378.417 429.67 381.08 432.333 384.366 432.333H427.871" stroke="url(#paint0_linear_254_6577)" stroke-opacity="0.8" stroke-width="0.431035"/>
<defs>
<linearGradient id="paint0_linear_254_6577" x1="162.75" y1="59.3788" x2="421.922" y2="380.09" gradientUnits="userSpaceOnUse">
<stop offset="0.0819437" stop-color="#F7F7F7"/>
<stop offset="0.208333" stop-color="#12C2E9"/>
<stop offset="0.526042" stop-color="#C471ED"/>
<stop offset="0.9375" stop-color="#F64F59"/>
</linearGradient>
</defs>
</svg>
