<svg width="17" height="17" viewBox="0 0 17 17" fill="none" xmlns="http://www.w3.org/2000/svg">
<path fill-rule="evenodd" clip-rule="evenodd" d="M3 0C1.34314 0 0 1.34314 0 3V13.5C0 15.1568 1.34314 16.5 3 16.5H13.5C15.1568 16.5 16.5 15.1568 16.5 13.5V3C16.5 1.34314 15.1568 0 13.5 0H3ZM3.90341 5.18182C4.60945 5.18182 5.18182 4.60945 5.18182 3.90341C5.18182 3.19736 4.60945 2.625 3.90341 2.625C3.19736 2.625 2.625 3.19736 2.625 3.90341C2.625 4.60945 3.19736 5.18182 3.90341 5.18182ZM5.18182 13.875V6.20455H2.625V13.875H5.18182ZM8.50568 6.20455H6.20455V13.875H8.50568V9.2478C8.80215 8.7657 9.3135 8.25 10.0398 8.25C11.0625 8.25 11.3182 9.2727 11.3182 9.78412V13.875H13.875V9.78412C13.875 8.4138 13.2769 6.20455 11.0625 6.20455C9.65407 6.20455 8.87205 6.71838 8.50568 7.1997V6.20455Z" fill="#32256E"/>
</svg>
