<svg width="39" height="39" viewBox="0 0 39 39" fill="none" xmlns="http://www.w3.org/2000/svg">
<path d="M19.1667 25.4912C12.9536 25.4912 7.10667 27.059 2 29.8207V36.3333H36.3333V29.8207C31.2267 27.059 25.3797 25.4912 19.1667 25.4912Z" fill="white"/>
<path d="M10.1316 11.0351V2H28.2018V11.0351C28.2018 16.025 24.1566 20.0702 19.1667 20.0702C14.1767 20.0702 10.1316 16.025 10.1316 11.0351Z" fill="white"/>
<path d="M19.1667 25.4912C12.9536 25.4912 7.10667 27.059 2 29.8207V36.3333H36.3333V29.8207C31.2267 27.059 25.3797 25.4912 19.1667 25.4912Z" stroke="#008080" stroke-width="3.5"/>
<path d="M10.1316 11.0351V2H28.2018V11.0351C28.2018 16.025 24.1566 20.0702 19.1667 20.0702C14.1767 20.0702 10.1316 16.025 10.1316 11.0351Z" stroke="#008080" stroke-width="3.5"/>
</svg>
