<svg width="595" height="125" viewBox="0 0 595 125" fill="none" xmlns="http://www.w3.org/2000/svg">
<g clip-path="url(#clip0_308_157)">
<path d="M198.4 34.3999H198.6C199.8 34.3999 200.5 35.2999 200.5 36.4999V90.3999C200.5 91.2999 199.8 92.2999 198.6 92.2999C197.7 92.2999 196.7 91.5999 196.7 90.3999V36.2999C196.7 35.2999 197.4 34.3999 198.4 34.3999ZM147.1 37.1999H182.4C183.6 37.1999 184.3 38.3999 184.3 39.2999C184.3 40.1999 183.6 41.1999 182.4 41.1999H149V63.6999H179.2C180.1 63.6999 181.1 64.3999 181.1 65.5999C181.1 66.4999 180.4 67.4999 179.2 67.4999H149.3V90.6999C149.1 91.8999 148.1 92.7999 147 92.7999C145.8 92.7999 144.9 91.8999 144.9 90.6999V39.3999H145.1C145 38.2999 145.8 37.2999 146.9 37.1999C147 37.1999 147.1 37.1999 147.1 37.1999ZM249.6 53.8999C249.6 52.6999 248.7 51.9999 247.7 51.9999C246.5 51.9999 245.8 52.8999 245.8 53.8999V76.3999C245.8 84.0999 239.5 90.0999 231.8 89.8999C223.6 89.8999 218.9 84.5999 218.9 76.1999V53.8999C218.9 52.6999 218 51.9999 217 51.9999C216.1 51.9999 215.1 52.8999 215.1 53.8999V76.8999C215.1 86.3999 221.2 93.3999 231.2 93.3999C237.3 93.5999 243.1 90.3999 245.9 84.9999V90.7999C245.9 91.9999 246.8 92.6999 247.8 92.6999C249 92.6999 249.7 91.7999 249.7 90.7999H249.5V53.8999H249.6ZM285.1 54.1999C285.1 55.0999 284.2 55.7999 283.2 55.7999H270.3V81.5999C270.3 87.3999 273.6 89.4999 278.5 89.4999C280.1 89.4999 281.8 89.2999 283.2 88.7999C284.1 88.7999 284.8 89.4999 284.8 90.3999C284.8 91.0999 284.3 91.7999 283.6 91.9999C281.7 92.6999 279.6 92.8999 277.8 92.8999C271.7 92.8999 266.6 89.3999 266.6 81.9999V55.7999H262.2C261.3 55.7999 260.3 54.8999 260.3 53.8999C260.3 52.9999 261.2 52.2999 262.2 52.2999H266.6V41.1999C266.6 40.2999 267.3 39.2999 268.2 39.2999H268.4C269.3 39.2999 270.3 40.1999 270.3 41.1999V52.2999H283.2C284.2 52.2999 285.1 53.1999 285.1 54.1999ZM315.1 55.7999C316 55.7999 317 55.0999 317 54.1999C317 53.2999 316.1 52.2999 315.1 52.2999H302.2V41.1999C302.2 40.2999 301.3 39.2999 300.3 39.2999H300.1C299.2 39.2999 298.5 40.1999 298.5 41.1999V52.2999H294.1C293.2 52.2999 292.2 52.9999 292.2 53.8999C292.2 54.7999 293.1 55.7999 294.1 55.7999H298.5V81.9999C298.5 89.3999 303.6 92.8999 309.7 92.8999C311.6 92.8999 313.7 92.6999 315.5 91.9999C316.2 91.7999 316.7 91.0999 316.7 90.3999C316.7 89.4999 316 88.7999 315.1 88.7999C313.7 89.2999 312.1 89.4999 310.4 89.4999C305.5 89.4999 302.2 87.3999 302.2 81.5999V55.7999H315.1ZM324 72.2999C324 60.4999 332.2 51.1999 343.2 51.1999C354.7 51.1999 361.9 60.4999 361.9 72.2999C361.9 73.1999 361 74.1999 360 74.1999H328.2C328.9 84.1999 336.2 89.9999 344.1 89.9999C349 89.9999 353.9 87.8999 357.2 84.3999C357.4 84.1999 357.9 83.8999 358.4 83.8999C359.3 83.8999 360.3 84.7999 360.3 85.7999C360.3 86.2999 360.1 86.6999 359.6 87.1999C355.6 91.5999 349.8 93.8999 343.9 93.6999C333.1 93.6999 324 85.2999 324 72.5999V72.2999ZM377.1 63.8999C379.7 57.1999 386 52.2999 393.2 51.7999C394.4 51.7999 395.3 52.6999 395.3 54.0999C395.3 54.9999 394.6 56.1999 393.4 56.1999H393.2C384.5 57.0999 377.1 63.3999 377.1 76.3999V91.2999C376.9 92.4999 376.2 93.1999 375 93.1999C374.1 93.1999 373.1 92.2999 373.1 91.2999V54.0999C373.3 52.8999 374 52.1999 375.2 52.1999C376.1 52.1999 377.1 53.0999 377.1 54.0999V63.8999ZM457 49.6999C454.2 49.6999 451.9 51.5999 451.2 54.2999L444.4 75.8999L437.6 54.2999C436.9 51.4999 434.3 49.3999 431.3 49.3999H430.6C427.6 49.3999 425 51.2999 424.3 54.2999L417.5 75.6999L411 54.0999C410.3 51.4999 408 49.4999 405.2 49.4999H405C402 49.4999 399.6 52.0999 399.6 55.0999C399.6 55.9999 399.8 56.9999 400.1 57.8999L410.6 87.8999C411.3 90.8999 413.9 92.9999 417.1 93.1999H417.6C420.6 93.1999 423.2 91.0999 424.1 88.0999L430.9 66.6999L437.7 88.0999C438.4 91.0999 441.2 93.1999 444.2 93.1999H444.7C448 93.1999 450.8 91.0999 451.5 87.8999L462 57.6999C462.2 56.9999 462.5 56.0999 462.5 55.3999V55.1999C462.5 52.0999 460.2 49.6999 457 49.6999ZM473.4 51.7999C477.8 50.3999 482.3 49.4999 487 49.6999C493.5 49.6999 498.2 51.5999 501.7 54.5999C505 58.2999 506.6 63.1999 506.4 68.0999V87.0999C506.4 90.3999 503.8 92.8999 500.6 92.8999C497.6 92.8999 495 90.7999 494.8 87.7999C491.5 91.2999 486.8 93.3999 481.9 93.0999C474.2 93.0999 467.4 88.4999 467.4 80.0999C467.4 70.7999 474.4 66.3999 484.5 66.3999C488 66.3999 491.5 66.8999 494.8 67.9999V67.2999C494.8 62.1999 491.8 59.5999 485.7 59.5999C482.9 59.5999 480.1 59.7999 477.3 60.7999C476.8 60.9999 476.1 60.9999 475.7 60.9999C472.9 61.1999 470.6 59.0999 470.6 56.3999C470.5 54.3999 471.6 52.4999 473.4 51.7999ZM542.4 53.6999C543.1 51.0999 545.4 49.4999 548 49.4999C551.3 49.4999 553.8 52.0999 553.8 55.0999V55.2999C553.8 56.1999 553.6 57.1999 553.1 58.0999L540.5 88.0999C539.3 91.0999 536.5 92.9999 533.5 93.1999H532.8C529.5 92.9999 527 90.8999 526 87.8999L512.9 57.8999C512.4 56.9999 512.2 55.9999 512.2 55.0999C512.4 51.7999 515 49.4999 518 49.4999C520.8 49.4999 523.1 51.3999 523.8 53.8999L532.9 78.2999L542.4 53.6999ZM558.6 73.1999C559.1 84.7999 569.1 93.8999 580.8 93.1999C586.2 93.1999 591.3 91.5999 595.5 88.0999C596.7 87.1999 597.1 85.9999 597.1 84.5999V84.3999C597.1 81.7999 595 79.7999 592.4 79.7999C591.5 79.7999 590.3 79.9999 589.6 80.6999C587 82.5999 584 83.6999 580.9 83.4999C575.8 83.6999 571.3 80.1999 570.6 75.0999H594.7C597.7 74.8999 600.1 72.2999 599.8 69.2999V68.3999C599.8 57.8999 590.7 49.0999 579.5 49.3999C567.1 49.3999 558.4 59.3999 558.4 71.4999V73.1999H558.6Z" fill="#15152A"/>
<path d="M327.9 70.4001C328.6 61.6001 334.9 54.8 342.9 54.8C352 54.8 356.9 62.2001 357.4 70.4001H327.9ZM495 77.4001C495 82.0001 491 84.8001 485.4 84.6001C481.7 84.6001 478.9 82.7001 478.9 79.5001V79.3C478.9 75.8 482.2 73.5001 487.3 73.5001C489.9 73.5001 492.7 74.2001 495 75.1001V77.4001ZM579.7 59.0001C574.8 59.0001 571.5 62.5001 570.6 68.1001H588.6C587.8 62.7001 584.5 59.0001 579.7 59.0001Z" fill="white"/>
<path d="M84.5 7.70009C137.1 -0.199908 103.4 44.6001 87.1 57.2001C98.3 65.8001 109.8 77.9001 114.7 91.6001C123.8 116.7 101.4 120.4 84.5 114.1C66 107.6 49.7 93.7001 38.9 77.4001C35.9 77.4001 32.6 76.9001 29.5 76.0001C35.6 93.2001 38.2 110.8 36.5 125.2C36.5 96.2001 22.7 67.4001 2.80002 43.4001C-4.19998 35.0001 3.00002 28.8001 9.30002 36.9001C13.6 42.8001 17.5 48.9001 21 55.2001C27.9 31.6001 61.5 11.0001 84.5 7.70009ZM77 50.4001C87.3 44.1001 118.6 10.5001 89.4 13.5001C72.6 15.4001 52.2 30.9001 43.8 40.9001C55.5 39.5001 67.4 44.6001 77 50.4001ZM48 76.5001C57.4 87.0001 70.2 97.2001 84 100.9C92 103 100.8 102.1 97.6 90.7001C94.3 80.2001 85.9 71.0001 77.7 64.0001C75.4 65.6001 72.8 67.3001 70.2 68.4001C63.2 72.3001 55.7 75.1001 48 76.5001Z" fill="#EBA12A"/>
<path d="M43.4999 48.3C51.4999 47.6 60.0999 51.8 66.6999 56C60.3999 59 53.3999 60.9 46.0999 61.3C35.3999 61.4 33.1999 49.3 43.4999 48.3Z" fill="white"/>
</g>
<defs>
<clipPath id="clip0_308_157">
<rect width="595" height="125" fill="white"/>
</clipPath>
</defs>
</svg>
