<svg width="66" height="13" viewBox="0 0 66 13" fill="none" xmlns="http://www.w3.org/2000/svg">
<path d="M5.37574 2.10241C2.13451 2.10241 0.33197 3.89613 0.33197 7.5643C0.33197 11.2163 2.11793 13.01 5.37574 13.01H7.09558C9.59264 13.01 10.5684 11.5071 10.5684 9.60036C10.5684 7.70967 9.59265 6.5139 7.60823 6.5139H4.92925V8.17836H7.40978C8.31934 8.17836 8.78236 8.69542 8.78236 9.56805C8.78236 10.4568 8.31934 11.1032 7.22791 11.1032H5.37578C3.20945 11.1032 2.28337 10.0528 2.28337 7.5643C2.28337 5.0596 3.22598 4.00924 5.37578 4.00924H9.97306V2.10245H5.37578L5.37574 2.10241ZM10.7418 4.4778V9.64882C10.7418 11.6203 12.0317 13.01 14.5288 13.01H16.1494C18.6465 13.01 19.9364 11.6203 19.9364 9.64882V4.4778H18.2166V9.58416C18.2166 10.5861 17.4724 11.3455 16.0833 11.3455H14.6611C13.272 11.3455 12.5113 10.5861 12.5113 9.58416V4.4778H10.7418ZM20.8376 4.4778V6.12606H26.0632C27.0223 6.12606 27.4027 6.64316 27.4027 7.30568V7.95205H23.2519C21.1021 7.95205 20.3084 8.85694 20.3084 10.4082C20.3084 12.0242 21.1683 13.0099 23.2354 13.0099H27.3201C28.7918 13.0099 29.1226 12.5251 29.1226 11.297V7.28949C29.1226 5.67357 28.2626 4.47776 26.0798 4.47776H20.8376V4.4778ZM26.9231 11.3455H23.2519C22.3755 11.3455 22.0282 10.9415 22.0282 10.3113C22.0282 9.68108 22.359 9.30944 23.285 9.30944H27.4027V10.9092C27.4027 11.2162 27.2704 11.3455 26.9232 11.3455L26.9231 11.3455ZM32.0412 4.4778C30.3213 4.4778 29.6764 5.25343 29.6764 6.96635V13.01H31.4293V7.22492C31.4293 6.4816 31.7766 6.12611 32.5538 6.12611H35.6297V4.47784H32.0412V4.4778ZM42.6661 0.777326V4.4778H38.813C36.4813 4.4778 35.026 5.86753 35.026 8.74388C35.026 11.6202 36.4813 13.0099 38.813 13.0099H41.2274C43.311 13.0099 44.4355 11.8141 44.4355 9.35789V0.777283H42.6661V0.777326ZM40.7147 11.3455H38.9784C37.4735 11.3455 36.7955 10.5861 36.7955 8.74388C36.7955 6.90169 37.4735 6.12606 38.9784 6.12606H42.6661V9.27713C42.6661 10.7315 42.1204 11.3455 40.7148 11.3455H40.7147ZM44.1461 4.4778V6.12606H45.3367V10.069C45.3367 12.2989 46.1139 13.01 47.9165 13.01H49.4875V11.4425H48.2803C47.4535 11.4425 47.1062 11.1193 47.1062 10.1659V6.12611H49.5206V4.47784H47.1062V2.45794H45.3367V4.47784H44.1461V4.4778ZM51.662 4.4778C49.9421 4.4778 49.2972 5.25343 49.2972 6.96635V13.01H51.0501V7.22492C51.0501 6.4816 51.3974 6.12611 52.1746 6.12611H55.2505V4.47784H51.662V4.4778ZM58.4337 4.4778C56.102 4.4778 54.6468 5.86753 54.6468 8.74388C54.6468 11.6202 56.102 13.0099 58.4337 13.0099H60.2693C62.5845 13.0099 64.0563 11.6202 64.0563 8.74388C64.0563 5.86753 62.5845 4.4778 60.2693 4.4778H58.4337ZM60.104 6.12606C61.6088 6.12606 62.2869 6.90169 62.2869 8.74388C62.2869 10.5861 61.6088 11.3455 60.104 11.3455H58.5991C57.0777 11.3455 56.4162 10.5861 56.4162 8.74388C56.4162 6.90169 57.0777 6.12606 58.5991 6.12606H60.104ZM64.2464 0.777326V13.01H65.9993V0.777326H64.2464Z" fill="#282829"/>
</svg>
