<svg width="428" height="433" viewBox="0 0 428 433" fill="none" xmlns="http://www.w3.org/2000/svg">
<rect width="41.6667" height="41.6667" rx="4.5977" transform="matrix(-1 0 0 1 426.871 1)" stroke="#F0F0F0" stroke-width="0.431035"/>
<rect width="41.6667" height="41.6667" rx="4.5977" transform="matrix(-1 0 0 1 385.205 1)" stroke="#F0F0F0" stroke-width="0.431035"/>
<rect width="41.6667" height="41.6667" rx="4.5977" transform="matrix(-1 0 0 1 343.538 1)" stroke="#F0F0F0" stroke-width="0.431035"/>
<rect width="41.6667" height="41.6667" rx="4.5977" transform="matrix(-1 0 0 1 301.871 1)" stroke="#F0F0F0" stroke-width="0.431035"/>
<rect width="41.6667" height="41.6667" rx="4.5977" transform="matrix(-1 0 0 1 260.205 1)" stroke="#F0F0F0" stroke-width="0.431035"/>
<rect width="41.6667" height="41.6667" rx="4.5977" transform="matrix(-1 0 0 1 218.538 1)" stroke="#F0F0F0" stroke-width="0.431035"/>
<rect width="41.6667" height="41.6667" rx="4.5977" transform="matrix(-1 0 0 1 426.871 54.9167)" stroke="#F0F0F0" stroke-width="0.431035"/>
<rect width="41.6667" height="41.6667" rx="4.5977" transform="matrix(-1 0 0 1 385.205 54.9167)" stroke="#F0F0F0" stroke-width="0.431035"/>
<rect width="41.6667" height="41.6667" rx="4.5977" transform="matrix(-1 0 0 1 343.538 54.9167)" stroke="#F0F0F0" stroke-width="0.431035"/>
<rect width="41.6667" height="41.6667" rx="4.5977" transform="matrix(-1 0 0 1 301.871 54.9167)" stroke="#F0F0F0" stroke-width="0.431035"/>
<rect width="41.6667" height="41.6667" rx="4.5977" transform="matrix(-1 0 0 1 260.205 54.9167)" stroke="#F0F0F0" stroke-width="0.431035"/>
<rect width="41.6667" height="41.6667" rx="4.5977" transform="matrix(-1 0 0 1 218.538 54.9167)" stroke="#F0F0F0" stroke-width="0.431035"/>
<rect width="41.6667" height="41.6667" rx="4.5977" transform="matrix(-1 0 0 1 426.871 108.833)" stroke="#F0F0F0" stroke-width="0.431035"/>
<rect width="41.6667" height="41.6667" rx="4.5977" transform="matrix(-1 0 0 1 385.205 108.833)" stroke="#F0F0F0" stroke-width="0.431035"/>
<rect width="41.6667" height="41.6667" rx="4.5977" transform="matrix(-1 0 0 1 343.538 108.833)" stroke="#F0F0F0" stroke-width="0.431035"/>
<rect width="41.6667" height="41.6667" rx="4.5977" transform="matrix(-1 0 0 1 301.871 108.833)" stroke="#F0F0F0" stroke-width="0.431035"/>
<rect width="41.6667" height="41.6667" rx="4.5977" transform="matrix(-1 0 0 1 260.205 108.833)" stroke="#F0F0F0" stroke-width="0.431035"/>
<rect width="41.6667" height="41.6667" rx="4.5977" transform="matrix(-1 0 0 1 218.538 108.833)" stroke="#F0F0F0" stroke-width="0.431035"/>
<rect width="41.6667" height="41.6667" rx="4.5977" transform="matrix(-1 0 0 1 426.871 162.75)" stroke="#F0F0F0" stroke-width="0.431035"/>
<rect width="41.6667" height="41.6667" rx="4.5977" transform="matrix(-1 0 0 1 385.205 162.75)" stroke="#F0F0F0" stroke-width="0.431035"/>
<rect width="41.6667" height="41.6667" rx="4.5977" transform="matrix(-1 0 0 1 343.538 162.75)" stroke="#F0F0F0" stroke-width="0.431035"/>
<rect width="41.6667" height="41.6667" rx="4.5977" transform="matrix(-1 0 0 1 301.871 162.75)" stroke="#F0F0F0" stroke-width="0.431035"/>
<rect width="41.6667" height="41.6667" rx="4.5977" transform="matrix(-1 0 0 1 260.205 162.75)" stroke="#F0F0F0" stroke-width="0.431035"/>
<rect width="41.6667" height="41.6667" rx="4.5977" transform="matrix(-1 0 0 1 218.538 162.75)" stroke="#F0F0F0" stroke-width="0.431035"/>
<rect width="41.6667" height="41.6667" rx="4.5977" transform="matrix(-1 0 0 1 426.871 216.667)" stroke="#F0F0F0" stroke-width="0.431035"/>
<rect width="41.6667" height="41.6667" rx="4.5977" transform="matrix(-1 0 0 1 385.205 216.667)" stroke="#F0F0F0" stroke-width="0.431035"/>
<rect width="41.6667" height="41.6667" rx="4.5977" transform="matrix(-1 0 0 1 343.538 216.667)" stroke="#F0F0F0" stroke-width="0.431035"/>
<rect width="41.6667" height="41.6667" rx="4.5977" transform="matrix(-1 0 0 1 301.871 216.667)" stroke="#F0F0F0" stroke-width="0.431035"/>
<rect width="41.6667" height="41.6667" rx="4.5977" transform="matrix(-1 0 0 1 260.205 216.667)" stroke="#F0F0F0" stroke-width="0.431035"/>
<rect width="41.6667" height="41.6667" rx="4.5977" transform="matrix(-1 0 0 1 218.538 216.667)" stroke="#F0F0F0" stroke-width="0.431035"/>
<rect width="41.6667" height="41.6667" rx="4.5977" transform="matrix(-1 0 0 1 426.871 270.583)" stroke="#F0F0F0" stroke-width="0.431035"/>
<rect width="41.6667" height="41.6667" rx="4.5977" transform="matrix(-1 0 0 1 385.205 270.583)" stroke="#F0F0F0" stroke-width="0.431035"/>
<rect width="41.6667" height="41.6667" rx="4.5977" transform="matrix(-1 0 0 1 343.538 270.583)" stroke="#F0F0F0" stroke-width="0.431035"/>
<rect width="41.6667" height="41.6667" rx="4.5977" transform="matrix(-1 0 0 1 301.871 270.583)" stroke="#F0F0F0" stroke-width="0.431035"/>
<rect width="41.6667" height="41.6667" rx="4.5977" transform="matrix(-1 0 0 1 260.205 270.583)" stroke="#F0F0F0" stroke-width="0.431035"/>
<rect width="41.6667" height="41.6667" rx="4.5977" transform="matrix(-1 0 0 1 218.538 270.583)" stroke="#F0F0F0" stroke-width="0.431035"/>
<rect width="41.6667" height="41.6667" rx="4.5977" transform="matrix(-1 0 0 1 426.871 324.5)" stroke="#F0F0F0" stroke-width="0.431035"/>
<rect width="41.6667" height="41.6667" rx="4.5977" transform="matrix(-1 0 0 1 385.205 324.5)" stroke="#F0F0F0" stroke-width="0.431035"/>
<rect width="41.6667" height="41.6667" rx="4.5977" transform="matrix(-1 0 0 1 343.538 324.5)" stroke="#F0F0F0" stroke-width="0.431035"/>
<rect width="41.6667" height="41.6667" rx="4.5977" transform="matrix(-1 0 0 1 301.871 324.5)" stroke="#F0F0F0" stroke-width="0.431035"/>
<rect width="41.6667" height="41.6667" rx="4.5977" transform="matrix(-1 0 0 1 260.205 324.5)" stroke="#F0F0F0" stroke-width="0.431035"/>
<rect width="41.6667" height="41.6667" rx="4.5977" transform="matrix(-1 0 0 1 218.538 324.5)" stroke="#F0F0F0" stroke-width="0.431035"/>
<path d="M211.204 59.3788V102.884C211.204 106.17 208.541 108.833 205.255 108.833H163.237C159.951 108.833 157.288 111.497 157.288 114.783V156.801C157.288 160.086 154.624 162.75 151.338 162.75H109.321C106.035 162.75 103.371 165.414 103.371 168.699V210.717C103.371 214.003 100.707 216.667 97.4217 216.667H55.4038C52.1181 216.667 49.4544 219.33 49.4544 222.616V264.634C49.4544 267.92 46.7908 270.583 43.505 270.583H-0.000188887M265.121 59.3788V102.884C265.121 106.17 262.457 108.833 259.172 108.833H217.154C213.868 108.833 211.204 111.497 211.204 114.783V156.801C211.204 160.086 208.541 162.75 205.255 162.75H163.237C159.951 162.75 157.288 165.414 157.288 168.699V210.717C157.288 214.003 159.951 216.667 163.237 216.667H205.255C208.541 216.667 211.204 214.003 211.204 210.717V167.956L211.256 167.604C211.656 164.91 213.943 162.898 216.667 162.845L221.616 162.75H259.172C262.457 162.75 265.121 165.414 265.121 168.699V210.717C265.121 214.003 262.457 216.667 259.172 216.667H216.782L215.37 216.761C213.026 216.917 211.204 218.864 211.204 221.213V225.777M211.204 221.129V264.634C211.204 267.92 208.541 270.583 205.255 270.583H163.237C159.951 270.583 157.288 273.247 157.288 276.533V318.551C157.288 321.836 154.624 324.5 151.338 324.5H109.321C106.035 324.5 103.371 327.164 103.371 330.449V372.467C103.371 375.753 100.707 378.417 97.4217 378.417H55.4038C52.1181 378.417 49.4544 381.08 49.4544 384.366V426.384C49.4544 429.67 46.7908 432.333 43.505 432.333H-0.000188887" stroke="url(#paint0_linear_254_8635)" stroke-opacity="0.8" stroke-width="0.431035"/>
<defs>
<linearGradient id="paint0_linear_254_8635" x1="265.121" y1="59.3788" x2="5.94926" y2="380.09" gradientUnits="userSpaceOnUse">
<stop offset="0.0819437" stop-color="#F7F7F7"/>
<stop offset="0.208333" stop-color="#12C2E9"/>
<stop offset="0.526042" stop-color="#C471ED"/>
<stop offset="0.9375" stop-color="#F64F59"/>
</linearGradient>
</defs>
</svg>
