<svg width="53" height="16" viewBox="0 0 53 16" fill="none" xmlns="http://www.w3.org/2000/svg">
<path fill-rule="evenodd" clip-rule="evenodd" d="M6.9983 0H0.0516285L0 0.308761C1.78113 0.713443 3.36368 1.30733 4.73805 2.04946L8.52414 15.5227L13.0051 15.5165L19.6726 0.121361H15.1875L11.0413 10.6404L10.5978 8.50348C10.4891 8.15575 10.3479 7.80387 10.178 7.4522C10.2782 7.65509 10.3713 7.86023 10.4574 8.06738L8.94965 1.25088C8.6894 0.31173 7.93288 0.0336471 6.9983 0ZM38.3465 0.749642C37.5087 0.446952 36.1935 0.121361 34.5532 0.121361C30.3725 0.121361 27.4263 2.14461 27.4004 5.04605C27.3776 7.18878 29.5026 8.3866 31.1088 9.10051C32.7554 9.83135 33.3105 10.2973 33.3042 10.9505C33.2918 11.9512 31.987 12.4062 30.7691 12.4062C29.077 12.4062 28.1781 12.1802 26.7873 11.6236L26.2426 11.3876L25.6482 14.7282C26.6351 15.1444 28.4639 15.5048 30.3622 15.5227C34.811 15.5227 37.6982 13.5244 37.7314 10.4248C37.7469 8.72912 36.6212 7.4377 34.1793 6.37132C32.6995 5.6813 31.7923 5.22129 31.8016 4.52232C31.8016 3.903 32.57 3.23887 34.2259 3.23887C35.6084 3.21796 36.6129 3.5087 37.3917 3.8104L37.7728 3.98265L38.3465 0.749642ZM49.1704 0.121712H45.9576C44.961 0.121712 44.2158 0.397324 43.7781 1.40002L37.5998 15.5231H41.9701C41.9701 15.5231 42.6817 13.6246 42.8456 13.2071C43.0694 13.2071 44.1247 13.2087 45.2436 13.2104C46.5063 13.2123 47.8501 13.2143 48.1718 13.2143C48.296 13.7532 48.6777 15.5231 48.6777 15.5231H52.539L49.1704 0.121712ZM45.6971 5.74687C45.6971 5.74687 44.3859 9.16734 44.0408 10.0559H47.4939C47.3269 9.28355 46.5298 5.60495 46.5298 5.60495L46.2479 4.27626C46.1318 4.59778 45.9672 5.02975 45.848 5.34251L45.8478 5.34282L45.8477 5.34318L45.8472 5.34447C45.7526 5.59287 45.6868 5.76553 45.6971 5.74687ZM21.5097 0.121361L18.9257 15.5227H23.0572L25.6483 0.121361H21.5097Z" fill="#16216A"/>
</svg>
