<svg width="34" height="21" viewBox="0 0 34 21" fill="none" xmlns="http://www.w3.org/2000/svg">
<path fill-rule="evenodd" clip-rule="evenodd" d="M12.4014 18.7554H21.5942V2.24512H12.4014V18.7554Z" fill="#FF5F00"/>
<path fill-rule="evenodd" clip-rule="evenodd" d="M12.9852 10.5001C12.9852 7.15057 14.5544 4.16738 16.9979 2.24498C15.211 0.838842 12.956 0 10.5052 0C4.70322 0 0 4.70084 0 10.5001C0 16.2991 4.70322 21.0002 10.5052 21.0002C12.956 21.0002 15.211 20.1614 16.9979 18.7552C14.5544 16.8326 12.9852 13.8496 12.9852 10.5001" fill="#EB001B"/>
<path fill-rule="evenodd" clip-rule="evenodd" d="M33.6678 17.0066V16.5988H33.5613L33.439 16.8791L33.3164 16.5988H33.2099V17.0066H33.2852V16.6992L33.3999 16.964H33.4778L33.5928 16.6983V17.0066H33.6678ZM32.994 17.0067V16.6686H33.1303V16.5995H32.783V16.6686H32.9193V17.0067H32.994ZM33.996 10.5001C33.996 16.2991 29.2928 21.0002 23.4908 21.0002C21.04 21.0002 18.7852 20.1614 16.998 18.7552C19.4416 16.8326 21.0108 13.8496 21.0108 10.5001C21.0108 7.15057 19.4416 4.16738 16.998 2.24498C18.7852 0.838842 21.04 0 23.4908 0C29.2928 0 33.996 4.70084 33.996 10.5001V10.5001Z" fill="#F79E1B"/>
</svg>
