<svg width="50" height="45" viewBox="0 0 50 45" fill="none" xmlns="http://www.w3.org/2000/svg">
<path d="M24.9999 12.5001C24.081 12.5148 23.169 12.6609 22.2915 12.9341C22.6967 13.6491 22.9119 14.4561 22.9165 15.2779C22.9165 15.9163 22.7908 16.5484 22.5465 17.1382C22.3022 17.7279 21.9441 18.2638 21.4927 18.7152C21.0414 19.1666 20.5055 19.5247 19.9157 19.769C19.3259 20.0133 18.6938 20.139 18.0554 20.139C17.2336 20.1344 16.4267 19.9192 15.7117 19.514C15.1488 21.4695 15.2153 23.5525 15.902 25.468C16.5886 27.3835 17.8604 29.0345 19.5374 30.1871C21.2144 31.3396 23.2115 31.9354 25.2458 31.89C27.2802 31.8446 29.2487 31.1603 30.8726 29.9341C32.4965 28.7078 33.6934 27.0017 34.2939 25.0575C34.8944 23.1132 34.8679 21.0293 34.2183 19.1009C33.5687 17.1725 32.3289 15.4974 30.6744 14.3127C29.02 13.128 27.0347 12.4939 24.9999 12.5001ZM49.696 20.955C44.9912 11.7709 35.6683 5.55566 24.9999 5.55566C14.3315 5.55566 5.00855 11.7709 0.303686 20.955C0.105303 21.348 0.00195313 21.7821 0.00195312 22.2223C0.00195313 22.6626 0.105303 23.0967 0.303686 23.4897C5.00855 32.6737 14.3315 38.889 24.9999 38.889C35.6683 38.889 44.9912 32.6737 49.696 23.4897C49.8944 23.0967 49.9978 22.6626 49.9978 22.2223C49.9978 21.7821 49.8944 21.348 49.696 20.955ZM24.9999 34.7223C16.4322 34.7223 8.58494 29.948 4.34882 22.2223C8.58494 14.4966 16.4322 9.72233 24.9999 9.72233C33.5676 9.72233 41.4148 14.4966 45.6509 22.2223C41.4148 29.948 33.5676 34.7223 24.9999 34.7223Z" fill="black" fill-opacity="0.14"/>
</svg>
