<svg width="50" height="40" viewBox="0 0 50 40" fill="none" xmlns="http://www.w3.org/2000/svg">
<g clip-path="url(#clip0_82_3845)">
<path d="M49.5311 36.7968L2.81238 0.273319C2.68417 0.170647 2.53698 0.0942506 2.37923 0.048497C2.22147 0.00274348 2.05625 -0.0114701 1.893 0.00666884C1.72975 0.0248078 1.57167 0.0749435 1.42781 0.15421C1.28395 0.233477 1.15712 0.34032 1.05457 0.468631L0.273319 1.44519C0.170647 1.57341 0.0942506 1.7206 0.048497 1.87835C0.00274348 2.0361 -0.0114701 2.20133 0.00666884 2.36458C0.0248078 2.52783 0.0749435 2.6859 0.15421 2.82977C0.233477 2.97363 0.34032 3.10046 0.468631 3.20301L47.1874 39.7264C47.3156 39.8291 47.4628 39.9055 47.6205 39.9513C47.7783 39.997 47.9435 40.0112 48.1068 39.9931C48.27 39.975 48.4281 39.9248 48.572 39.8456C48.7158 39.7663 48.8426 39.6594 48.9452 39.5311L49.7264 38.5546C49.8291 38.4264 49.9055 38.2792 49.9513 38.1214C49.997 37.9637 50.0112 37.7984 49.9931 37.6352C49.975 37.4719 49.9248 37.3139 49.8456 37.17C49.7663 37.0261 49.6594 36.8993 49.5311 36.7968ZM23.1874 11.4452L33.7186 19.6796C33.5468 14.9921 29.7264 11.2499 24.9999 11.2499C24.3906 11.2519 23.7831 11.3173 23.1874 11.4452ZM26.8124 28.5624L16.2811 20.328C16.4608 25.0077 20.2733 28.7499 24.9999 28.7499C25.6092 28.7475 26.2166 28.682 26.8124 28.5546V28.5624ZM24.9999 8.74988C32.7108 8.74988 39.7733 13.0468 43.5858 19.9999C42.6505 21.7111 41.4948 23.2923 40.1483 24.703L43.0936 27.0077C44.7351 25.2518 46.1259 23.2774 47.2264 21.1405C47.405 20.7868 47.498 20.3961 47.498 19.9999C47.498 19.6037 47.405 19.213 47.2264 18.8593C42.9921 10.5936 34.6014 4.99988 24.9999 4.99988C22.1327 4.99988 19.3983 5.54676 16.828 6.46863L20.453 9.30457C21.9296 8.96863 23.4452 8.74988 24.9999 8.74988ZM24.9999 31.2499C17.2889 31.2499 10.2264 26.953 6.41394 19.9999C7.35167 18.2882 8.51 16.707 9.85926 15.2968L6.91394 12.9921C5.27238 14.7479 3.88159 16.7223 2.78113 18.8593C2.60259 19.213 2.50957 19.6037 2.50957 19.9999C2.50957 20.3961 2.60259 20.7868 2.78113 21.1405C7.00769 29.4061 15.3983 34.9999 24.9999 34.9999C27.8671 34.9999 30.6014 34.4452 33.1718 33.5311L29.5468 30.6952C28.0702 31.0311 26.5546 31.2499 24.9999 31.2499Z" fill="black" fill-opacity="0.14"/>
</g>
<defs>
<clipPath id="clip0_82_3845">
<rect width="50" height="40" fill="white"/>
</clipPath>
</defs>
</svg>
