<svg width="24" height="23" viewBox="0 0 24 23" fill="none" xmlns="http://www.w3.org/2000/svg">
<path d="M3.99707 17.4854H6.03809V19.0215C6.03809 21.1055 7.10156 22.1689 9.20703 22.1689H19.9922C22.0869 22.1689 23.1611 21.0947 23.1611 19.0215V8.18262C23.1611 6.10938 22.0869 5.0459 19.9922 5.0459H17.9512V3.49902C17.9512 1.43652 16.877 0.362305 14.7822 0.362305H3.99707C1.8916 0.362305 0.828125 1.41504 0.828125 3.49902V14.3486C0.828125 16.4219 1.8916 17.4854 3.99707 17.4854ZM4.01855 16.1533C2.81543 16.1533 2.16016 15.5195 2.16016 14.2734V3.57422C2.16016 2.32812 2.81543 1.69434 4.01855 1.69434H14.7607C15.9424 1.69434 16.6191 2.32812 16.6191 3.57422V5.0459H9.20703C7.10156 5.0459 6.03809 6.09863 6.03809 8.18262V16.1533H4.01855ZM9.22852 20.8369C8.02539 20.8369 7.37012 20.1924 7.37012 18.957V8.24707C7.37012 7.01172 8.02539 6.36719 9.22852 6.36719H19.9707C21.1523 6.36719 21.8291 7.01172 21.8291 8.24707V18.957C21.8291 20.1924 21.1523 20.8369 19.9707 20.8369H9.22852Z" fill="#2E7CF6"/>
</svg>
