<svg width="235" height="313" viewBox="0 0 235 313" fill="none" xmlns="http://www.w3.org/2000/svg">
<g clip-path="url(#clip0_2605_2)">
<path d="M129.144 306.42C123.717 314.295 112.265 314.56 106.38 307.203H106.397L105.855 306.419C89.9308 283.351 76.3314 263.996 64.7344 247.49C43.9415 217.896 29.5856 197.463 19.8051 181.222C12.1937 168.583 7.37235 158.512 4.45052 148.664C1.52984 138.819 0.5 129.173 0.5 117.375C0.5 52.8509 52.9058 0.5 117.5 0.5C182.094 0.5 234.5 52.8509 234.5 117.375C234.5 129.173 233.47 138.819 230.549 148.664C227.628 158.512 222.806 168.583 215.195 181.222C205.414 197.463 191.059 217.896 170.266 247.49C158.669 263.996 145.069 283.351 129.145 306.419L129.144 306.42ZM117.5 166.781C144.825 166.781 166.958 144.672 166.958 117.375C166.958 90.0777 144.825 67.9688 117.5 67.9688C90.1749 67.9688 68.0417 90.0777 68.0417 117.375C68.0417 144.672 90.1749 166.781 117.5 166.781Z" fill="#D6D3E2" fill-opacity="0.2" stroke="#32256E"/>
</g>
<defs>
<clipPath id="clip0_2605_2">
<rect width="235" height="313" fill="white"/>
</clipPath>
</defs>
</svg>
