<svg width="11" height="19" viewBox="0 0 11 19" fill="none" xmlns="http://www.w3.org/2000/svg">
<path d="M10.4141 9.24414C10.4141 9.0293 10.3389 8.84668 10.1777 8.69629L1.59473 0.510742C1.44434 0.371094 1.27246 0.295898 1.05762 0.295898C0.649414 0.295898 0.316406 0.618164 0.316406 1.03711C0.316406 1.24121 0.402344 1.42383 0.53125 1.56348L8.59863 9.24414L0.53125 16.9248C0.402344 17.0537 0.316406 17.2363 0.316406 17.4404C0.316406 17.8701 0.649414 18.1816 1.05762 18.1816C1.27246 18.1816 1.44434 18.1064 1.59473 17.9668L10.1777 9.79199C10.3389 9.6416 10.4141 9.45898 10.4141 9.24414Z" fill="#2F7CF6"/>
</svg>
