<svg width="50" height="50" viewBox="0 0 50 50" fill="none" xmlns="http://www.w3.org/2000/svg">
<circle cx="25" cy="25" r="24" fill="#D6D3E2" stroke="#32256E"/>
<path opacity="0.3" fill-rule="evenodd" clip-rule="evenodd" d="M24.6471 23.1667C26.6722 23.1667 28.3138 21.5251 28.3138 19.5C28.3138 17.475 26.6722 15.8334 24.6471 15.8334C22.6221 15.8334 20.9805 17.475 20.9805 19.5C20.9805 21.5251 22.6221 23.1667 24.6471 23.1667ZM22.6305 26.8334C20.2004 26.8334 18.2305 28.8033 18.2305 31.2334C18.2305 32.8534 19.5438 34.1667 21.1638 34.1667H28.1305C29.7505 34.1667 31.0638 32.8534 31.0638 31.2334C31.0638 28.8033 29.0939 26.8334 26.6638 26.8334H22.6305Z" fill="#12171A"/>
<path fill-rule="evenodd" clip-rule="evenodd" d="M21.6042 19.5C21.6042 17.7511 23.022 16.3334 24.7709 16.3334C26.5198 16.3334 27.9375 17.7511 27.9375 19.5C27.9375 21.2489 26.5198 22.6667 24.7709 22.6667C23.022 22.6667 21.6042 21.2489 21.6042 19.5ZM24.7709 15.3334C22.4697 15.3334 20.6042 17.1989 20.6042 19.5C20.6042 21.8012 22.4697 23.6667 24.7709 23.6667C27.072 23.6667 28.9375 21.8012 28.9375 19.5C28.9375 17.1989 27.072 15.3334 24.7709 15.3334ZM22.7542 26.3334C20.048 26.3334 17.8542 28.5272 17.8542 31.2334C17.8542 33.1296 19.3913 34.6667 21.2875 34.6667H28.2542C30.1504 34.6667 31.6875 33.1296 31.6875 31.2334C31.6875 28.5272 29.4937 26.3334 26.7875 26.3334H22.7542ZM18.8542 31.2334C18.8542 29.0795 20.6003 27.3334 22.7542 27.3334H26.7875C28.9414 27.3334 30.6875 29.0795 30.6875 31.2334C30.6875 32.5773 29.5981 33.6667 28.2542 33.6667H21.2875C19.9436 33.6667 18.8542 32.5773 18.8542 31.2334Z" fill="#12171A"/>
</svg>
