<svg width="19" height="25" viewBox="0 0 19 25" fill="none" xmlns="http://www.w3.org/2000/svg">
<path d="M9.35645 16.1445C9.71094 16.1445 10.0117 15.8545 10.0117 15.5V3.93066L9.96875 2.37305L10.9248 3.36133L12.751 5.2627C12.8691 5.3916 13.041 5.45605 13.2021 5.45605C13.5352 5.45605 13.8037 5.20898 13.8037 4.87598C13.8037 4.69336 13.7285 4.56445 13.6104 4.43555L9.8291 0.740234C9.66797 0.579102 9.52832 0.525391 9.35645 0.525391C9.18457 0.525391 9.04492 0.579102 8.88379 0.740234L5.10254 4.43555C4.97363 4.56445 4.89844 4.69336 4.89844 4.87598C4.89844 5.20898 5.15625 5.45605 5.5 5.45605C5.66113 5.45605 5.84375 5.3916 5.96191 5.2627L7.78809 3.36133L8.74414 2.37305L8.70117 3.93066V15.5C8.70117 15.8545 9.00195 16.1445 9.35645 16.1445ZM3.16895 24.416H15.5332C17.6279 24.416 18.7021 23.3418 18.7021 21.2793V10.3008C18.7021 8.22754 17.6279 7.15332 15.5332 7.15332H12.4717V8.48535H15.501C16.6934 8.48535 17.3701 9.12988 17.3701 10.3652V21.2041C17.3701 22.4502 16.6934 23.084 15.501 23.084H3.19043C1.9873 23.084 1.33203 22.4502 1.33203 21.2041V10.3652C1.33203 9.12988 1.9873 8.48535 3.19043 8.48535H6.24121V7.15332H3.16895C1.07422 7.15332 0 8.2168 0 10.3008V21.2793C0 23.3525 1.07422 24.416 3.16895 24.416Z" fill="#2E7CF6"/>
</svg>
