<svg width="206" height="235" viewBox="0 0 206 235" fill="none" xmlns="http://www.w3.org/2000/svg">
<g clip-path="url(#clip0_2608_10)">
<path d="M58.75 67.9297V49.5703C58.75 46.541 61.2285 44.0625 64.2578 44.0625H82.6172C85.6465 44.0625 88.125 46.541 88.125 49.5703V67.9297C88.125 70.959 85.6465 73.4375 82.6172 73.4375H64.2578C61.2285 73.4375 58.75 70.959 58.75 67.9297ZM123.008 73.4375H141.367C144.396 73.4375 146.875 70.959 146.875 67.9297V49.5703C146.875 46.541 144.396 44.0625 141.367 44.0625H123.008C119.979 44.0625 117.5 46.541 117.5 49.5703V67.9297C117.5 70.959 119.979 73.4375 123.008 73.4375ZM64.2578 117.5H82.6172C85.6465 117.5 88.125 115.021 88.125 111.992V93.6328C88.125 90.6035 85.6465 88.125 82.6172 88.125H64.2578C61.2285 88.125 58.75 90.6035 58.75 93.6328V111.992C58.75 115.021 61.2285 117.5 64.2578 117.5ZM123.008 117.5H141.367C144.396 117.5 146.875 115.021 146.875 111.992V93.6328C146.875 90.6035 144.396 88.125 141.367 88.125H123.008C119.979 88.125 117.5 90.6035 117.5 93.6328V111.992C117.5 115.021 119.979 117.5 123.008 117.5ZM88.125 156.055V137.695C88.125 134.666 85.6465 132.188 82.6172 132.188H64.2578C61.2285 132.188 58.75 134.666 58.75 137.695V156.055C58.75 159.084 61.2285 161.562 64.2578 161.562H82.6172C85.6465 161.562 88.125 159.084 88.125 156.055ZM123.008 161.562H141.367C144.396 161.562 146.875 159.084 146.875 156.055V137.695C146.875 134.666 144.396 132.188 141.367 132.188H123.008C119.979 132.188 117.5 134.666 117.5 137.695V156.055C117.5 159.084 119.979 161.562 123.008 161.562ZM205.625 218.477V235H0V218.477C0 215.447 2.47852 212.969 5.50781 212.969H14.458V11.0156C14.458 4.91113 19.3691 0 25.4736 0H180.151C186.256 0 191.167 4.91113 191.167 11.0156V212.969H200.117C203.146 212.969 205.625 215.447 205.625 218.477ZM36.4893 212.51H88.125V181.758C88.125 178.729 90.6035 176.25 93.6328 176.25H111.992C115.021 176.25 117.5 178.729 117.5 181.758V212.51H169.136V22.4902L36.7188 22.0312L36.4893 212.51Z" fill="#D6D3E2" fill-opacity="0.2"/>
</g>
<defs>
<clipPath id="clip0_2608_10">
<rect width="205.625" height="235" fill="white"/>
</clipPath>
</defs>
</svg>
