<svg width="24" height="21" viewBox="0 0 24 21" fill="none" xmlns="http://www.w3.org/2000/svg">
<path d="M12.001 2.21973C11.3564 1.30664 9.14355 0.178711 6.5332 0.178711C3.40723 0.178711 0.786133 1.7793 0.367188 3.08984V19.4395C0.367188 20.084 0.786133 20.3525 1.26953 20.3525C1.65625 20.3525 1.88184 20.2344 2.10742 20.0518C2.82715 19.3643 4.18066 18.5264 6.5332 18.5264C8.92871 18.5264 10.4219 19.375 11.0127 19.998C11.2383 20.1914 11.5068 20.3525 12.001 20.3525C12.4844 20.3525 12.7529 20.1699 12.9893 19.998C13.6123 19.3965 15.0732 18.5264 17.4688 18.5264C19.8213 18.5264 21.207 19.3428 21.8945 20.0518C22.1201 20.2344 22.3457 20.3525 22.7324 20.3525C23.2158 20.3525 23.6348 20.084 23.6348 19.4395V3.08984C23.2158 1.7793 20.5947 0.178711 17.4688 0.178711C14.8584 0.178711 12.6455 1.30664 12.001 2.21973ZM1.78516 3.51953C1.94629 2.84277 3.84766 1.52148 6.5332 1.52148C9.22949 1.52148 11.1416 2.85352 11.292 3.51953V18.6445C10.207 17.7207 8.45605 17.2051 6.5332 17.2051C4.59961 17.2051 2.84863 17.7314 1.78516 18.666V3.51953ZM22.2168 3.51953V18.666C21.1426 17.7314 19.4023 17.2051 17.4688 17.2051C15.5459 17.2051 13.7949 17.7207 12.71 18.6445V3.51953C12.8604 2.85352 14.7725 1.52148 17.4688 1.52148C20.1543 1.52148 22.0449 2.84277 22.2168 3.51953Z" fill="#2E7CF6"/>
</svg>
