<svg width="45" height="35" viewBox="0 0 45 35" fill="none" xmlns="http://www.w3.org/2000/svg">
<path d="M2 26.1426V2H37.0444V26.1426H2Z" fill="white"/>
<path d="M19.5222 18.9274C22.3685 18.9274 24.6758 16.62 24.6758 13.7738C24.6758 10.9275 22.3685 8.62016 19.5222 8.62016C16.676 8.62016 14.3687 10.9275 14.3687 13.7738C14.3687 16.62 16.676 18.9274 19.5222 18.9274Z" fill="white"/>
<path d="M2 26.1426V2H37.0444V26.1426H2Z" stroke="#008080" stroke-width="3.5"/>
<path d="M8.18433 32.3269H43.2288V8.18431" stroke="#008080" stroke-width="3.5"/>
<path d="M19.5222 18.9274C22.3685 18.9274 24.6758 16.62 24.6758 13.7738C24.6758 10.9275 22.3685 8.62016 19.5222 8.62016C16.676 8.62016 14.3687 10.9275 14.3687 13.7738C14.3687 16.62 16.676 18.9274 19.5222 18.9274Z" stroke="#008080" stroke-width="3.5"/>
</svg>
