<svg width="17" height="17" viewBox="0 0 17 17" fill="none" xmlns="http://www.w3.org/2000/svg">
<path fill-rule="evenodd" clip-rule="evenodd" d="M3 0C1.34314 0 0 1.34314 0 3V13.5C0 15.1568 1.34314 16.5 3 16.5H13.5C15.1568 16.5 16.5 15.1568 16.5 13.5V3C16.5 1.34314 15.1568 0 13.5 0H3ZM2.625 6C2.625 4.13604 4.13604 2.625 6 2.625H10.5C12.364 2.625 13.875 4.13604 13.875 6V10.5C13.875 12.364 12.364 13.875 10.5 13.875H6C4.13604 13.875 2.625 12.364 2.625 10.5V6ZM6 3.375C4.55025 3.375 3.375 4.55025 3.375 6V10.5C3.375 11.9497 4.55025 13.125 6 13.125H10.5C11.9497 13.125 13.125 11.9497 13.125 10.5V6C13.125 4.55025 11.9497 3.375 10.5 3.375H6ZM12 5.375C12 5.72017 11.7202 6 11.375 6C11.0298 6 10.75 5.72017 10.75 5.375C10.75 5.02982 11.0298 4.75 11.375 4.75C11.7202 4.75 12 5.02982 12 5.375ZM5.375 8.25C5.375 6.66218 6.66218 5.375 8.25 5.375C9.83783 5.375 11.125 6.66218 11.125 8.25C11.125 9.83783 9.83783 11.125 8.25 11.125C6.66218 11.125 5.375 9.83783 5.375 8.25ZM8.25 6.125C7.0764 6.125 6.125 7.0764 6.125 8.25C6.125 9.4236 7.0764 10.375 8.25 10.375C9.4236 10.375 10.375 9.4236 10.375 8.25C10.375 7.0764 9.4236 6.125 8.25 6.125Z" fill="#32256E"/>
</svg>
